# xmcd CD database file
#
# Track frame offsets:
#	150
#	18307
#	40481
#	57511
#	71925
#	91702
#	108305
#	123828
#	145102
#	161798
#	176945
#	197012
#
# Disc length: 2811 seconds
#
# Revision: 0
# Processed by: cddbd v1.5.2PL0 Copyright (c) Steve Scherf et al.
# Submitted via: CDex 1.51
#
DISCID=ab0af90c
DTITLE=Mistéfy - Me
DYEAR=2010
DGENRE=Jazz
TTITLE0=East of the Sun
TTITLE1=It's A Beautiful Day
TTITLE2=Healing Hands
TTITLE3=Creatures
TTITLE4=I Close My Eyes
TTITLE5=Sisters in Spirit
TTITLE6=Magic Moments
TTITLE7=Learn Just to Be
TTITLE8=Art By Heart
TTITLE9=Wait For Me
TTITLE10=Big Secret
TTITLE11=We Are Through
EXTD=YEAR: 2010
EXTT0=
EXTT1=
EXTT2=
EXTT3=
EXTT4=
EXTT5=
EXTT6=
EXTT7=
EXTT8=
EXTT9=
EXTT10=
EXTT11=
PLAYORDER=
